<svg width="17" height="17" viewBox="0 0 17 17" fill="none" xmlns="http://www.w3.org/2000/svg">
<path d="M14.5657 3.14503L14.5657 3.14497C14.5264 3.10468 14.4556 3.08717 14.3924 3.11383L14.1981 2.65314L14.3924 3.11383L13.1967 3.61818C13.1965 3.61828 13.1962 3.61839 13.196 3.61849C12.9843 3.7083 12.7575 3.75412 12.5283 3.75377M14.5657 3.14503L11.6933 12.9601C11.2325 13.2158 10.9172 13.6724 10.8568 14.1965L10.7123 15.449C10.7081 15.4861 10.6764 15.5345 10.609 15.5499L10.609 15.5499C9.44458 15.8159 8.23113 15.8159 7.06666 15.5499C6.99924 15.5345 6.96762 15.486 6.96335 15.4491C6.96335 15.4491 6.96335 15.4491 6.96335 15.4491L6.81909 14.1983L6.81891 14.1967C6.75691 13.6737 6.44123 13.2187 5.98092 12.964C5.52201 12.7099 4.96733 12.6805 4.48394 12.8832L4.48341 12.8834L3.28141 13.389L3.28132 13.3891C3.21813 13.4157 3.14749 13.3981 3.10821 13.3578L3.10816 13.3577C2.29614 12.5239 1.69309 11.5255 1.34284 10.4385L1.34283 10.4385C1.33136 10.4029 1.34086 10.3559 1.38779 10.3227L1.38782 10.3227L2.44976 9.57145C2.44991 9.57134 2.45005 9.57124 2.4502 9.57114C2.45023 9.57112 2.45025 9.5711 2.45028 9.57108C2.88109 9.2669 3.14287 8.77783 3.14287 8.24982C3.14287 7.72156 2.88094 7.23245 2.44967 6.92809C2.44963 6.92805 2.44958 6.92802 2.44953 6.92799C2.44946 6.92794 2.44939 6.92789 2.44932 6.92784L1.38788 6.17777L1.38787 6.17776C1.34083 6.14452 1.33134 6.0975 1.34286 6.06184C1.69371 4.9758 2.29706 3.97857 3.10908 3.14585L3.10909 3.14584C3.14846 3.10547 3.2192 3.088 3.28237 3.11465L3.28238 3.11465L4.47904 3.6194L4.4792 3.61947C4.96531 3.82432 5.52282 3.79362 5.9839 3.53523C6.44383 3.2788 6.75868 2.82264 6.81971 2.29921L6.81974 2.29896L6.96507 1.04713C6.96507 1.04712 6.96507 1.04712 6.96507 1.04712C6.96941 1.00978 7.00182 0.960601 7.07064 0.945905C7.64892 0.822421 8.23938 0.756493 8.84737 0.749422C9.43946 0.756341 10.0291 0.822204 10.6068 0.945925C10.6756 0.96065 10.708 1.0098 10.7123 1.04712L10.8576 2.29916L11.3544 2.24226L10.8577 2.29992L10.8577 2.29972C10.9545 3.1426 11.6878 3.7528 12.5283 3.75377M14.5657 3.14503C15.3777 3.97775 15.9811 4.97498 16.332 6.06104C16.3435 6.09667 16.334 6.14363 16.2871 6.17687C16.2871 6.17688 16.287 6.17689 16.287 6.1769L15.2268 6.92727C15.2266 6.9274 15.2264 6.92754 15.2262 6.92768C15.2262 6.9277 15.2262 6.92771 15.2262 6.92772C14.7953 7.23194 14.5337 7.72101 14.5337 8.249C14.5337 8.7774 14.7958 9.26659 15.2275 9.57114L16.2887 10.3218L16.2887 10.3219M14.5657 3.14503L16.2887 10.3219M12.5283 3.75377L12.529 3.25377M12.5283 3.75377C12.5284 3.75377 12.5284 3.75377 12.5285 3.75377L12.529 3.25377M12.529 3.25377C12.6911 3.25402 12.8514 3.22161 13.0012 3.15798L12.529 3.25377ZM0.866965 10.5918L0.866929 10.5918L0.866965 10.5918ZM0.866965 10.5918L0.867035 10.5918M0.866965 10.5918L0.867035 10.5918M0.867035 10.5918L0.867073 10.5918L0.867035 10.5918ZM16.2887 10.3219C16.3357 10.3551 16.3452 10.402 16.3337 10.4377C15.9829 11.5236 15.3799 12.5208 14.5683 13.3537L14.5683 13.3537M16.2887 10.3219L14.5683 13.3537M14.5683 13.3537C14.529 13.394 14.4584 13.4116 14.3952 13.385L14.3951 13.3849M14.5683 13.3537L14.3951 13.3849M14.3951 13.3849L13.1934 12.8794L13.1932 12.8793M14.3951 13.3849L13.1932 12.8793M13.1932 12.8793C12.7086 12.6757 12.1529 12.7051 11.6933 12.9601L13.1932 12.8793ZM8.85325 0.979984L8.85324 0.980112C9.25376 0.984673 9.66056 1.01879 10.0645 1.08191L10.4402 1.14061L10.484 1.51827L10.577 2.32002L10.5771 2.32082C10.6835 3.2504 11.5097 3.98352 12.5279 3.98454L12.5282 3.98454C12.8022 3.98495 13.0731 3.93007 13.3228 3.82398L13.324 3.82347L14.0901 3.50034L14.4263 3.35854L14.6639 3.63545C15.1882 4.24657 15.6063 4.93638 15.9009 5.67801L16.0461 6.04352L15.7251 6.27073L15.0441 6.75269L15.0435 6.75313C14.5416 7.10721 14.2519 7.66429 14.2519 8.249C14.2519 8.83351 14.5415 9.39064 15.0443 9.74534L15.0448 9.74571L15.7267 10.2281L16.0479 10.4553L15.9026 10.8209C15.608 11.5625 15.1902 12.2523 14.666 12.8635L14.4287 13.1402L14.0926 12.9989L13.3199 12.6739C12.7432 12.4315 12.0803 12.4675 11.5372 12.7689L11.5372 12.7689C10.9953 13.0696 10.6432 13.5944 10.5762 14.1756L10.5762 14.1756L10.4831 14.9828L10.4398 15.3581L10.067 15.419C9.25341 15.5519 8.4223 15.5519 7.60874 15.419L7.23591 15.3581L7.19262 14.9828L7.09966 14.1771C7.09963 14.1769 7.0996 14.1766 7.09957 14.1764C7.03035 13.5945 6.67775 13.072 6.1368 12.7725C5.5944 12.4723 4.93305 12.4365 4.3575 12.6776L8.85325 0.979984ZM8.85325 0.979984L8.84191 0.980112C8.43 0.984763 8.01934 1.0189 7.61311 1.08213L7.2372 1.14064L7.19334 1.51853L7.10031 2.32006C7.03258 2.90112 6.68072 3.42532 6.14152 3.72563L6.14019 3.72638C5.59657 4.03133 4.93092 4.06868 4.35237 3.82495C4.35232 3.82493 4.35226 3.8249 4.35221 3.82488L3.58475 3.50116L3.24857 3.35936L3.01098 3.63626C2.48667 4.2473 2.06869 4.93697 1.77406 5.67845L1.6287 6.04427L1.95018 6.27143L2.63192 6.75317L2.63224 6.75339C3.13505 7.1081 3.42467 7.66524 3.42467 8.24982C3.42467 8.8344 3.13498 9.3915 2.63292 9.74566L2.63237 9.74605L1.94956 10.2291L1.62868 10.4561L1.77349 10.8215C2.06786 11.5642 2.48588 12.2552 3.01053 12.8674L3.24786 13.1443L3.58404 13.0029L4.35695 12.6778L8.85325 0.979984ZM8.8367 5.67244C10.3497 5.67244 11.5412 6.84511 11.5412 8.24941C11.5412 9.65361 10.3497 10.8263 8.8367 10.8263C7.32372 10.8263 6.13221 9.65361 6.13221 8.24941C6.13221 6.84511 7.32372 5.67244 8.8367 5.67244ZM8.8367 5.90321C7.51805 5.90321 6.41401 6.93467 6.41401 8.24941C6.41401 9.56407 7.51805 10.5956 8.8367 10.5956C10.1553 10.5956 11.2594 9.56407 11.2594 8.24941C11.2594 6.93467 10.1553 5.90321 8.8367 5.90321Z" stroke="red"/>
</svg>
